<svg width="60" height="60" viewBox="0 0 60 60" fill="none" xmlns="http://www.w3.org/2000/svg">
<path d="M48.3745 24.1871C48.1024 24.5219 47.7097 24.7366 47.2809 24.7849C46.8521 24.8332 46.4216 24.7113 46.0818 24.4455L29.9354 11.7544L21.0871 18.439L18.8266 20.1182L12.6264 24.8007C12.3505 25.017 12.0082 25.1311 11.6576 25.1236C11.4074 25.1212 11.161 25.0617 10.9372 24.9498C10.7134 24.8379 10.518 24.6765 10.3659 24.4778C10.109 24.1352 9.99864 23.7045 10.0592 23.2806C10.1198 22.8567 10.3463 22.4742 10.6888 22.2173L16.0171 18.2129V11.0762H21.0871V14.3055L29.128 8.33136C29.4125 8.11907 29.758 8.00439 30.1129 8.00439C30.4679 8.00439 30.8134 8.11907 31.0979 8.33136L48.0839 21.7974C48.2703 21.9273 48.4272 22.0951 48.5444 22.2898C48.6615 22.4845 48.7362 22.7017 48.7636 22.9273C48.7911 23.1528 48.7706 23.3816 48.7035 23.5987C48.6365 23.8158 48.5244 24.0163 48.3745 24.1871Z" fill="white"/>
<path d="M46.1465 45.5327H43.7245V28.4175L30.2907 18.5359L15.6944 28.9665V45.3712H13.2725V28.3529C13.2724 28.1569 13.3193 27.9638 13.4091 27.7896C13.499 27.6154 13.6293 27.4653 13.7892 27.3519L29.6126 16.0817C29.8161 15.9246 30.066 15.8394 30.323 15.8394C30.5801 15.8394 30.83 15.9246 31.0335 16.0817L45.6621 26.8352C45.8154 26.9452 45.9397 27.0909 46.024 27.2597C46.1084 27.4285 46.1504 27.6153 46.1465 27.804V45.5327Z" fill="white"/>
<path d="M48.7622 42.8203H10.915V45.759H48.7622V42.8203Z" fill="white"/>
<path d="M22.605 29.3218C23.6242 29.3218 24.6017 29.7266 25.3223 30.4473C26.043 31.168 26.4479 32.1454 26.4479 33.1646V42.8525H18.8914V33.1646C18.8908 32.1674 19.2779 31.2091 19.9709 30.492C20.6638 29.7749 21.6084 29.3553 22.605 29.3218Z" fill="white"/>
<path d="M38.6222 30.6782H36.1356C35.8325 30.6782 35.5867 30.924 35.5867 31.2272V33.7137C35.5867 34.0169 35.8325 34.2627 36.1356 34.2627H38.6222C38.9254 34.2627 39.1712 34.0169 39.1712 33.7137V31.2272C39.1712 30.924 38.9254 30.6782 38.6222 30.6782Z" fill="#F8A606"/>
<path d="M34.0043 30.6782H31.5177C31.2145 30.6782 30.9688 30.924 30.9688 31.2272V33.7137C30.9688 34.0169 31.2145 34.2627 31.5177 34.2627H34.0043C34.3075 34.2627 34.5532 34.0169 34.5532 33.7137V31.2272C34.5532 30.924 34.3075 30.6782 34.0043 30.6782Z" fill="#F8A606"/>
<path d="M38.6222 35.6514H36.1356C35.8325 35.6514 35.5867 35.8972 35.5867 36.2003V38.6869C35.5867 38.9901 35.8325 39.2359 36.1356 39.2359H38.6222C38.9254 39.2359 39.1712 38.9901 39.1712 38.6869V36.2003C39.1712 35.8972 38.9254 35.6514 38.6222 35.6514Z" fill="#F8A606"/>
<path d="M34.0043 35.6514H31.5177C31.2145 35.6514 30.9688 35.8972 30.9688 36.2003V38.6869C30.9688 38.9901 31.2145 39.2359 31.5177 39.2359H34.0043C34.3075 39.2359 34.5532 38.9901 34.5532 38.6869V36.2003C34.5532 35.8972 34.3075 35.6514 34.0043 35.6514Z" fill="#F8A606"/>
</svg>
